<svg xmlns="http://www.w3.org/2000/svg" version="1.1" xmlns:xlink="http://www.w3.org/1999/xlink" xmlns:svgjs="http://svgjs.dev/svgjs" width="2000" height="1247" viewBox="0 0 2000 1247"><g transform="matrix(1,0,0,1,-1.2121212121212466,0.504858299595071)"><svg viewBox="0 0 396 247" data-background-color="#ffffff" preserveAspectRatio="xMidYMid meet" height="1247" width="2000" xmlns="http://www.w3.org/2000/svg" xmlns:xlink="http://www.w3.org/1999/xlink"><g id="tight-bounds" transform="matrix(1,0,0,1,0.2400000000000091,-0.09999999999999432)"><svg viewBox="0 0 395.52 247.2" height="247.2" width="395.52"><g><svg></svg></g><g><svg viewBox="0 0 395.52 247.2" height="247.2" width="395.52"><g transform="matrix(1,0,0,1,123.15159069767441,47.215199999999996)"><svg viewBox="0 0 149.21681860465117 152.7696" height="152.7696" width="149.21681860465117"><g><svg viewBox="0 0 149.21681860465117 152.7696" height="152.7696" width="149.21681860465117"><g><svg viewBox="0 0 149.2168186046512 152.76960000000003" height="152.7696" width="149.21681860465117"><g><svg viewBox="0 0 149.2168186046512 152.76960000000003" height="152.76960000000003" width="149.2168186046512"><g id="textblocktransform"><svg viewBox="0 0 149.2168186046512 152.76960000000003" height="152.76960000000003" width="149.2168186046512" id="textblock"><g><svg viewBox="0 0 149.2168186046512 152.76960000000003" height="152.76960000000003" width="149.2168186046512"><g transform="matrix(1,0,0,1,0,0)"><svg width="149.2168186046512" viewBox="1.15 -34.4 33.6 34.4" height="152.76960000000003" data-palette-color="#b10dc9"><path d="M34.75-25.6L23.5-25.6 23.5 0 12.45 0 12.45-25.6 1.15-25.6 1.15-34.4 34.75-34.4 34.75-25.6Z" opacity="1" transform="matrix(1,0,0,1,0,0)" fill="#ffffff" class="wordmark-text-0" data-fill-palette-color="primary" id="text-0"></path></svg></g></svg></g></svg></g></svg></g></svg></g></svg></g></svg></g><path d="M305.453 41.215L305.453 0 58.253 0 58.253 247.2 305.453 247.2 305.453 205.985 291.676 205.985 291.676 233.423 72.03 233.423 72.03 13.777 291.676 13.777 291.676 41.215Z" fill="#ffffff" stroke="transparent" data-fill-palette-color="tertiary"></path></svg></g><defs></defs></svg><rect width="395.52" height="247.2" fill="none" stroke="none" visibility="hidden"></rect></g></svg></g></svg>